<?xml version="1.0" encoding="UTF-8"?>
<svg width="100" height="100" viewBox="0 0 24 24" fill="none" xmlns="http://www.w3.org/2000/svg">
  <circle cx="12" cy="12" r="8" fill="#EF4444"/>
  <circle cx="9" cy="10" r="1.5" fill="white"/>
  <circle cx="15" cy="10" r="1.5" fill="white"/>
  <path d="M8.5 15C8.5 15 10 17 12 17C14 17 15.5 15 15.5 15" stroke="white" stroke-width="1.5" stroke-linecap="round"/>
  <path d="M5 7C5 7 3 5 2 6C1 7 3 9 3 9" stroke="#EF4444" stroke-width="1.5" stroke-linecap="round"/>
  <path d="M19 7C19 7 21 5 22 6C23 7 21 9 21 9" stroke="#EF4444" stroke-width="1.5" stroke-linecap="round"/>
  <path d="M6 3C6 3 5 2 4 3C3 4 5 5 5 5" stroke="#EF4444" stroke-width="1.5" stroke-linecap="round"/>
  <path d="M18 3C18 3 19 2 20 3C21 4 19 5 19 5" stroke="#EF4444" stroke-width="1.5" stroke-linecap="round"/>
</svg>