<?xml version="1.0" encoding="UTF-8" standalone="no"?>
<svg xmlns="http://www.w3.org/2000/svg" width="100" height="100" viewBox="0 0 100 100">
  <defs>
    <linearGradient id="catering-gradient" x1="0%" y1="0%" x2="100%" y2="100%">
      <stop offset="0%" style="stop-color:#3a1c71;stop-opacity:1" />
      <stop offset="100%" style="stop-color:#5c4db2;stop-opacity:1" />
    </linearGradient>
  </defs>
  
  <!-- Background Circle -->
  <circle cx="50" cy="50" r="48" fill="#f5f5f5" opacity="0.2" />
  
  <!-- Plate -->
  <circle cx="50" cy="50" r="35" fill="#ffffff" stroke="url(#catering-gradient)" stroke-width="2"/>
  <circle cx="50" cy="50" r="28" fill="none" stroke="url(#catering-gradient)" stroke-width="1" stroke-dasharray="2,2"/>
  
  <!-- Fork -->
  <g transform="translate(30, 35) rotate(-15)">
    <rect x="-2" y="0" width="4" height="40" rx="2" ry="2" fill="url(#catering-gradient)"/>
    <rect x="-2" y="-8" width="4" height="8" rx="1" ry="1" fill="url(#catering-gradient)"/>
    <rect x="-2" y="-16" width="4" height="8" rx="1" ry="1" fill="url(#catering-gradient)"/>
    <rect x="-2" y="-24" width="4" height="8" rx="1" ry="1" fill="url(#catering-gradient)"/>
  </g>
  
  <!-- Knife -->
  <g transform="translate(70, 35) rotate(15)">
    <path d="M0,0 L0,40 C0,42 -4,42 -4,40 L-4,20 C-4,10 -1,0 0,0 Z" fill="url(#catering-gradient)"/>
  </g>
  
  <!-- Food -->
  <g transform="translate(50, 50)">
    <circle cx="-10" cy="-5" r="4" fill="url(#catering-gradient)" opacity="0.8"/>
    <circle cx="5" cy="-8" r="5" fill="url(#catering-gradient)" opacity="0.8"/>
    <circle cx="8" cy="5" r="6" fill="url(#catering-gradient)" opacity="0.8"/>
    <circle cx="-8" cy="10" r="3" fill="url(#catering-gradient)" opacity="0.8"/>
  </g>
</svg>