<?xml version="1.0" encoding="UTF-8" standalone="no"?>
<svg xmlns="http://www.w3.org/2000/svg" width="100%" height="500px" viewBox="0 0 1200 500" preserveAspectRatio="xMidYMid slice">
  <defs>
    <linearGradient id="hero-gradient" x1="0%" y1="0%" x2="100%" y2="100%">
      <stop offset="0%" style="stop-color:#3a1c71;stop-opacity:0.9" />
      <stop offset="50%" style="stop-color:#d76d77;stop-opacity:0.9" />
      <stop offset="100%" style="stop-color:#ffaf7b;stop-opacity:0.9" />
    </linearGradient>
    <pattern id="dots-pattern" x="0" y="0" width="20" height="20" patternUnits="userSpaceOnUse">
      <circle cx="2" cy="2" r="1" fill="#ffffff" opacity="0.3" />
    </pattern>
    <filter id="blur-filter" x="-10%" y="-10%" width="120%" height="120%">
      <feGaussianBlur in="SourceGraphic" stdDeviation="5" />
    </filter>
  </defs>
  
  <!-- Background -->
  <rect width="100%" height="100%" fill="url(#hero-gradient)" />
  <rect width="100%" height="100%" fill="url(#dots-pattern)" />
  
  <!-- Decorative Elements -->
  <g opacity="0.7" filter="url(#blur-filter)">
    <!-- Large Decorative Circles -->
    <circle cx="300" cy="100" r="80" fill="#ffffff" opacity="0.1" />
    <circle cx="900" cy="400" r="100" fill="#ffffff" opacity="0.1" />
    <circle cx="1100" cy="150" r="70" fill="#ffffff" opacity="0.1" />
    <circle cx="600" cy="450" r="120" fill="#ffffff" opacity="0.1" />
    <circle cx="100" cy="400" r="90" fill="#ffffff" opacity="0.1" />
    
    <!-- Diagonal Lines -->
    <line x1="0" y1="0" x2="1200" y2="500" stroke="#ffffff" stroke-width="2" opacity="0.1" />
    <line x1="1200" y1="0" x2="0" y2="500" stroke="#ffffff" stroke-width="2" opacity="0.1" />
  </g>
  
  <!-- Wedding Hall Silhouette -->
  <g transform="translate(600, 400)" opacity="0.8">
    <!-- Building Base -->
    <rect x="-250" y="-150" width="500" height="150" fill="#000000" opacity="0.3" />
    
    <!-- Columns -->
    <rect x="-220" y="-150" width="25" height="150" fill="#ffffff" opacity="0.2" />
    <rect x="-110" y="-150" width="25" height="150" fill="#ffffff" opacity="0.2" />
    <rect x="0" y="-150" width="25" height="150" fill="#ffffff" opacity="0.2" />
    <rect x="110" y="-150" width="25" height="150" fill="#ffffff" opacity="0.2" />
    <rect x="195" y="-150" width="25" height="150" fill="#ffffff" opacity="0.2" />
    
    <!-- Roof -->
    <polygon points="-270,-150 0,-250 270,-150" fill="#000000" opacity="0.3" />
    
    <!-- Steps -->
    <rect x="-200" y="0" width="400" height="10" fill="#ffffff" opacity="0.2" />
    <rect x="-180" y="10" width="360" height="10" fill="#ffffff" opacity="0.2" />
    <rect x="-160" y="20" width="320" height="10" fill="#ffffff" opacity="0.2" />
  </g>
  
  <!-- Floating Lights (Small Circles) -->
  <g opacity="0.7">
    <circle cx="100" cy="50" r="2" fill="#ffffff" />
    <circle cx="200" cy="80" r="1.5" fill="#ffffff" />
    <circle cx="300" cy="40" r="2.5" fill="#ffffff" />
    <circle cx="400" cy="70" r="2" fill="#ffffff" />
    <circle cx="500" cy="30" r="1.5" fill="#ffffff" />
    <circle cx="600" cy="60" r="2.5" fill="#ffffff" />
    <circle cx="700" cy="50" r="2" fill="#ffffff" />
    <circle cx="800" cy="80" r="1.5" fill="#ffffff" />
    <circle cx="900" cy="40" r="2.5" fill="#ffffff" />
    <circle cx="1000" cy="70" r="2" fill="#ffffff" />
    <circle cx="1100" cy="30" r="1.5" fill="#ffffff" />
    <circle cx="150" cy="150" r="2" fill="#ffffff" />
    <circle cx="250" cy="180" r="1.5" fill="#ffffff" />
    <circle cx="350" cy="140" r="2.5" fill="#ffffff" />
    <circle cx="450" cy="170" r="2" fill="#ffffff" />
    <circle cx="550" cy="130" r="1.5" fill="#ffffff" />
    <circle cx="650" cy="160" r="2.5" fill="#ffffff" />
    <circle cx="750" cy="150" r="2" fill="#ffffff" />
    <circle cx="850" cy="180" r="1.5" fill="#ffffff" />
    <circle cx="950" cy="140" r="2.5" fill="#ffffff" />
    <circle cx="1050" cy="170" r="2" fill="#ffffff" />
    <circle cx="1150" cy="130" r="1.5" fill="#ffffff" />
  </g>
</svg>