<?xml version="1.0" encoding="UTF-8" standalone="no"?>
<svg xmlns="http://www.w3.org/2000/svg" width="200" height="200" viewBox="0 0 200 200">
  <defs>
    <linearGradient id="khitan-gradient" x1="0%" y1="0%" x2="100%" y2="100%">
      <stop offset="0%" style="stop-color:#ffaf7b;stop-opacity:1" />
      <stop offset="100%" style="stop-color:#f8c390;stop-opacity:1" />
    </linearGradient>
    <filter id="shadow" x="-20%" y="-20%" width="140%" height="140%">
      <feGaussianBlur stdDeviation="3" result="blur" />
      <feComposite in="SourceGraphic" in2="blur" operator="over" />
    </filter>
  </defs>
  
  <!-- Background Circle -->
  <circle cx="100" cy="100" r="95" fill="#f5f5f5" opacity="0.2" />
  
  <!-- Decorative Circular Pattern -->
  <g filter="url(#shadow)">
    <circle cx="100" cy="100" r="70" fill="none" stroke="url(#khitan-gradient)" stroke-width="5" />
    <circle cx="100" cy="100" r="55" fill="none" stroke="url(#khitan-gradient)" stroke-width="3" />
    
    <!-- Ornamental Elements -->
    <g transform="translate(100, 100)">
      <!-- Eight decorative elements around the circle -->
      <g transform="rotate(0)">
        <path d="M0,-70 Q10,-60 0,-50 Q-10,-60 0,-70" fill="url(#khitan-gradient)" />
      </g>
      <g transform="rotate(45)">
        <path d="M0,-70 Q10,-60 0,-50 Q-10,-60 0,-70" fill="url(#khitan-gradient)" />
      </g>
      <g transform="rotate(90)">
        <path d="M0,-70 Q10,-60 0,-50 Q-10,-60 0,-70" fill="url(#khitan-gradient)" />
      </g>
      <g transform="rotate(135)">
        <path d="M0,-70 Q10,-60 0,-50 Q-10,-60 0,-70" fill="url(#khitan-gradient)" />
      </g>
      <g transform="rotate(180)">
        <path d="M0,-70 Q10,-60 0,-50 Q-10,-60 0,-70" fill="url(#khitan-gradient)" />
      </g>
      <g transform="rotate(225)">
        <path d="M0,-70 Q10,-60 0,-50 Q-10,-60 0,-70" fill="url(#khitan-gradient)" />
      </g>
      <g transform="rotate(270)">
        <path d="M0,-70 Q10,-60 0,-50 Q-10,-60 0,-70" fill="url(#khitan-gradient)" />
      </g>
      <g transform="rotate(315)">
        <path d="M0,-70 Q10,-60 0,-50 Q-10,-60 0,-70" fill="url(#khitan-gradient)" />
      </g>
    </g>
    
    <!-- Center Decorative Element -->
    <circle cx="100" cy="100" r="15" fill="url(#khitan-gradient)" />
    <circle cx="100" cy="100" r="10" fill="#f5f5f5" opacity="0.8" />
    <circle cx="100" cy="100" r="5" fill="url(#khitan-gradient)" />
  </g>
</svg>