<?xml version="1.0" encoding="UTF-8"?>
<svg xmlns="http://www.w3.org/2000/svg" width="48" height="48" viewBox="0 0 24 24" fill="none" stroke="#845EC2" stroke-width="2" stroke-linecap="round" stroke-linejoin="round">
  <rect x="3" y="10" width="18" height="4" rx="1" />
  <path d="M12 10v8" />
  <path d="M5 10V7a1 1 0 0 1 1-1h12a1 1 0 0 1 1 1v3" />
  <path d="M20 14v3a1 1 0 0 1-1 1H5a1 1 0 0 1-1-1v-3" />
  <circle cx="6" cy="5" r="1" />
  <circle cx="18" cy="5" r="1" />
  <circle cx="18" cy="19" r="1" />
  <circle cx="6" cy="19" r="1" />
</svg>